# xmcd
#
# Track frame offsets:
#	150
#	16532
#	30243
#	45021
#	59063
#	74791
#	89124
#	108292
#	124945
#	141667
#	161031
#	177077
#	193169
#	206632
#	226187
#	242520
#
# Disc length: 3442 seconds
#
# Revision: 1
# Processed by: cddbd v1.5.2PL0 Copyright (c) Steve Scherf et al.
# Submitted via: audiograbber 1.83.01
#
DISCID=df0d7010
DTITLE=Chartbuster - esp 486-05 5053-02
DYEAR=1900
DGENRE=
TTITLE0=Twain, Shania and Currington, Billy - Party For Two
TTITLE1=Dotdon, Amber - I Ain't Your Mama
TTITLE2=Wilson, Gretchen - When It Rains
TTITLE3=Krauss, Alison and Union Station - Restless
TTITLE4=Andrews, Jessica - Summer Girl
TTITLE5=Lucas, Lauren - What You Ain't Gonna Get
TTITLE6=Twain, Shania - Don't
TTITLE7=Cowboy Crush - Nobody Ever Died Of A Broken Heart
TTITLE8=Loveless, Patty - Keep Your Distance
TTITLE9=Howard, Rebecca Lynn - No One'll Ever Love Me
TTITLE10=Brown, Shannon - Corn Fed
TTITLE11=Carter, Deana - One Day At A Time
TTITLE12=Wilson, Gretchen - I Don't Feel Like Loving You Today
TTITLE13=Sugarland - Just Might (Make Me Believe)
TTITLE14=McCann, Lila - I'm Amazed
TTITLE15=McBride, Martina - Rose Garden
EXTD=
EXTT0=
EXTT1=
EXTT2=
EXTT3=
EXTT4=
EXTT5=
EXTT6=
EXTT7=
EXTT8=
EXTT9=
EXTT10=
EXTT11=
EXTT12=
EXTT13=
EXTT14=
EXTT15=
PLAYORDER=
